<svg width="147" height="147" viewBox="0 0 147 147" fill="none" xmlns="http://www.w3.org/2000/svg">
<rect width="147" height="147" fill="#020202"/>
<path d="M61.3028 50.3222L53.765 63.7267H51.6317L44.0939 50.6067V66.5H39.6494V41.6111H43.5606L52.7694 57.8244L61.8361 41.6111H65.7472L65.7828 66.5H61.3383L61.3028 50.3222ZM77.6992 47.2289C80.4014 47.2289 82.4636 47.9163 83.8858 49.2911C85.3318 50.6422 86.0547 52.6807 86.0547 55.4067V66.5H81.7525V63.9044C81.2547 64.8289 80.5199 65.54 79.5481 66.0378C78.5762 66.5119 77.4147 66.7489 76.0636 66.7489C74.0014 66.7489 72.3658 66.2274 71.1569 65.1844C69.9481 64.1178 69.3436 62.743 69.3436 61.06C69.3436 59.3296 69.9599 57.9667 71.1925 56.9711C72.4251 55.9519 74.3332 55.4422 76.9169 55.4422H81.4681C81.4681 54.6363 81.3495 53.9844 81.1125 53.4867C80.591 51.8748 79.2518 51.0689 77.0947 51.0689C76.0755 51.0689 75.0799 51.2467 74.1081 51.6022C73.1599 51.9341 72.3421 52.3844 71.6547 52.9533L69.9836 49.6111C70.9555 48.8526 72.1169 48.2719 73.4681 47.8689C74.8429 47.4422 76.2532 47.2289 77.6992 47.2289ZM77.1658 63.4778C78.1851 63.4778 79.074 63.2289 79.8325 62.7311C80.591 62.2333 81.1362 61.5104 81.4681 60.5622V58.2867H77.4147C75.0206 58.2867 73.8236 59.14 73.8236 60.8467C73.8236 61.6526 74.1199 62.2926 74.7125 62.7667C75.3051 63.2407 76.1229 63.4778 77.1658 63.4778ZM100.3 47.2289C102.552 47.2289 104.353 47.9281 105.704 49.3267C107.079 50.7252 107.767 52.7993 107.767 55.5489V66.5H103.18V56.2956C103.18 54.66 102.824 53.4393 102.113 52.6333C101.426 51.8037 100.419 51.3889 99.0911 51.3889C97.6215 51.3889 96.4481 51.8748 95.5711 52.8467C94.7178 53.7948 94.2911 55.1696 94.2911 56.9711V66.5H89.7044V47.4778H94.0778V50.1089C94.7652 49.1844 95.6422 48.4733 96.7089 47.9756C97.7993 47.4778 98.9963 47.2289 100.3 47.2289ZM55.501 104.5H51.1277V101.833C50.464 102.781 49.6225 103.504 48.6033 104.002C47.584 104.5 46.4344 104.749 45.1544 104.749C43.4477 104.749 41.907 104.346 40.5322 103.54C39.1573 102.734 38.0788 101.596 37.2966 100.127C36.5144 98.6333 36.1233 96.9148 36.1233 94.9711C36.1233 93.0511 36.5144 91.3563 37.2966 89.8867C38.0788 88.3933 39.1573 87.2437 40.5322 86.4378C41.907 85.6319 43.4477 85.2289 45.1544 85.2289C46.387 85.2289 47.4892 85.4659 48.461 85.94C49.4566 86.3904 50.2744 87.0778 50.9144 88.0022V78.1178H55.501V104.5ZM45.901 100.767C47.3707 100.767 48.5914 100.245 49.5633 99.2022C50.5351 98.1356 51.021 96.7252 51.021 94.9711C51.021 93.2407 50.5351 91.8541 49.5633 90.8111C48.5914 89.7444 47.3707 89.2111 45.901 89.2111C44.4077 89.2111 43.1751 89.7326 42.2033 90.7756C41.2314 91.8185 40.7455 93.217 40.7455 94.9711C40.7455 96.7252 41.2314 98.1356 42.2033 99.2022C43.1751 100.245 44.4077 100.767 45.901 100.767ZM67.1523 85.2289C69.8545 85.2289 71.9167 85.9163 73.339 87.2911C74.7849 88.6422 75.5078 90.6807 75.5078 93.4067V104.5H71.2056V101.904C70.7078 102.829 69.973 103.54 69.0012 104.038C68.0293 104.512 66.8678 104.749 65.5167 104.749C63.4545 104.749 61.819 104.227 60.6101 103.184C59.4012 102.118 58.7967 100.743 58.7967 99.06C58.7967 97.3296 59.413 95.9667 60.6456 94.9711C61.8782 93.9519 63.7864 93.4422 66.3701 93.4422H70.9212C70.9212 92.6363 70.8027 91.9844 70.5656 91.4867C70.0441 89.8748 68.7049 89.0689 66.5478 89.0689C65.5286 89.0689 64.533 89.2467 63.5612 89.6022C62.613 89.9341 61.7953 90.3844 61.1078 90.9533L59.4367 87.6111C60.4086 86.8526 61.5701 86.2719 62.9212 85.8689C64.296 85.4422 65.7064 85.2289 67.1523 85.2289ZM66.619 101.478C67.6382 101.478 68.5271 101.229 69.2856 100.731C70.0441 100.233 70.5893 99.5104 70.9212 98.5622V96.2867H66.8678C64.4738 96.2867 63.2767 97.14 63.2767 98.8467C63.2767 99.6526 63.573 100.293 64.1656 100.767C64.7582 101.241 65.576 101.478 66.619 101.478ZM102.323 85.2289C104.574 85.2289 106.352 85.9281 107.656 87.3267C108.983 88.7252 109.647 90.7993 109.647 93.5489V104.5H105.096V94.2956C105.096 92.6837 104.752 91.463 104.065 90.6333C103.401 89.8037 102.465 89.3889 101.256 89.3889C99.8811 89.3889 98.7789 89.863 97.9492 90.8111C97.1433 91.7356 96.7403 93.0748 96.7403 94.8289V104.5H92.1892V94.2956C92.1892 92.66 91.8574 91.4393 91.1937 90.6333C90.53 89.8037 89.5818 89.3889 88.3492 89.3889C86.9744 89.3889 85.8841 89.863 85.0781 90.8111C84.2722 91.7356 83.8692 93.0748 83.8692 94.8289V104.5H79.2826V85.4778H83.6559V88.0733C84.3196 87.1489 85.1611 86.4496 86.1803 85.9756C87.1996 85.4778 88.3374 85.2289 89.5937 85.2289C90.9448 85.2289 92.1418 85.5252 93.1848 86.1178C94.2515 86.6867 95.0811 87.54 95.6737 88.6778C96.3848 87.5874 97.3092 86.7459 98.447 86.1533C99.6085 85.537 100.9 85.2289 102.323 85.2289Z" fill="white"/>
</svg>
